PathFileType	4	(X/Y/Z)	RBDS001\RBDS001runT25.trc																																																																																																	
DataRate	CameraRate	NumFrames	NumMarkers	Units	OrigDataRate	OrigDataStartFrame	OrigNumFrames																																																																																													
150	150	4	33	mm	150	0	4500																																																																																													
Frame#	Time	L.ASIS			L.Heel.Bottom			L.Heel.Lateral			L.Heel.Top			L.Iliac.Crest			L.MT1			L.MT5			L.PSIS			L.Shank.Bottom.Lateral			L.Shank.Bottom.Medial			L.Shank.Top.Lateral			L.Shank.Top.Medial			L.Thigh.Bottom.Lateral			L.Thigh.Bottom.Medial			L.Thigh.Top.Lateral			L.Thigh.Top.Medial			R.ASIS			R.ASY			R.Heel.Bottom			R.Heel.Lateral			R.Heel.Top			R.Iliac.Crest			R.MT5			R.MT1			R.PSIS			R.Shank.Bottom.Lateral			R.Shank.Bottom.Medial			R.Shank.Top.Lateral			R.Shank.Top.Medial			R.Thigh.Bottom.Lateral			R.Thigh.Bottom.Medial			R.Thigh.Top.Lateral			R.Thigh.Top.Medial		
		X1	Y1	Z1	X2	Y2	Z2	X3	Y3	Z3	X4	Y4	Z4	X5	Y5	Z5	X6	Y6	Z6	X7	Y7	Z7	X8	Y8	Z8	X9	Y9	Z9	X10	Y10	Z10	X11	Y11	Z11	X12	Y12	Z12	X13	Y13	Z13	X14	Y14	Z14	X15	Y15	Z15	X16	Y16	Z16	X17	Y17	Z17	X18	Y18	Z18	X19	Y19	Z19	X20	Y20	Z20	X21	Y21	Z21	X22	Y22	Z22	X23	Y23	Z23	X24	Y24	Z24	X25	Y25	Z25	X26	Y26	Z26	X27	Y27	Z27	X28	Y28	Z28	X29	Y29	Z29	X30	Y30	Z30	X31	Y31	Z31	X32	Y32	Z32	X33	Y33	Z33
																																																																																																				
1	0	2335.692168	1040.781193	963.428518	1706.34197	358.5101562	1020.86169	1728.581719	338.6627331	978.6287441	1753.67197	364.6959377	1021.059209	2284.047692	1117.265807	937.5187468	1796.48094	153.930059	1047.767669	1773.191689	184.5643003	945.8031685	2169.14273	1085.807862	1037.619044	1864.749268	352.5980863	960.1669767	1842.615929	386.7704453	992.0031891	1928.255255	401.2868455	947.5011571	1909.285895	437.8901176	981.3179593	2177.324608	640.9339557	930.5162306	2136.980553	650.4301549	991.3952848	2175.687732	750.2258808	916.4980621	2141.141465	759.6887534	975.3423748	2337.808768	1041.187851	1170.177254	2543.184334	92.98564423	1118.345122	2350.141515	48.65494927	1109.297479	2382.187456	53.00653082	1153.572055	2364.882048	94.6504333	1118.008095	2279.253428	1111.40626	1206.233933	2551.695275	42.09209519	1169.598527	2570.557481	61.15466693	1062.497573	2172.680042	1082.833304	1113.63678	2427.719483	186.4534624	1174.488389	2383.853674	189.4219407	1141.847672	2417.531479	265.1301762	1192.527864	2375.202845	267.776874	1158.24839	2387.34201	631.4164458	1211.123457	2331.388883	607.4449977	1169.046156	2331.389955	726.1742687	1225.412732	2279.635225	702.3475545	1185.501219
2	0.006666667	2335.297581	1035.56854	963.2871493	1713.186093	366.6890248	1018.367644	1734.730234	346.3674902	975.993605	1760.622144	371.4934716	1018.56226	2283.087816	1111.476133	937.2600381	1796.764198	159.5777379	1044.323789	1774.444128	191.3631824	942.4095044	2168.344547	1079.214495	1038.080285	1871.038858	355.7708323	957.6855065	1850.026719	390.5890852	989.5124678	1936.031101	402.251684	945.20174	1918.262332	439.373203	979.0929909	2184.189841	633.4718227	930.0321787	2143.857539	641.8738452	991.1036955	2180.150236	742.7713151	916.4381093	2145.66254	751.0805432	975.4323767	2337.432956	1036.139177	1170.625977	2525.74769	91.9890167	1115.549156	2333.360852	44.75989437	1108.877948	2365.374303	51.30855041	1152.766919	2347.451309	91.19729857	1115.897381	2279.133802	1105.673181	1206.418031	2535.662337	42.74245133	1168.09991	2553.83254	59.66633522	1060.589709	2171.838016	1076.719306	1114.014515	2415.140128	183.267058	1171.60646	2370.748413	188.1715014	1140.085446	2408.58068	262.0520207	1190.170729	2365.683608	266.5846521	1156.914006	2387.95263	626.9591712	1210.213213	2332.202785	603.1252099	1167.840429	2331.745121	721.5527001	1225.056161	2279.849494	697.8646962	1185.087653
3	0.013333333	2334.856873	1030.360369	963.1891409	1720.263098	374.6410024	1015.910994	1741.14651	353.8775683	973.3949251	1767.797462	378.1050905	1016.115382	2282.123614	1105.683183	937.0094754	1797.464986	165.0785913	1040.880259	1776.124328	198.020916	939.0332425	2167.481766	1072.674302	1038.48816	1877.565418	358.8561572	955.2400681	1857.65228	394.3032045	987.0579983	1943.995944	403.1743613	942.9307605	1927.409414	440.7939857	976.893632	2191.111073	626.104249	929.5124836	2150.774345	633.4097442	990.758274	2184.66647	735.3905451	916.3559193	2150.229503	742.5658605	975.4950395	2336.945023	1031.15953	1171.09838	2508.349519	91.03511177	1112.881561	2316.568294	41.11699855	1108.458377	2348.562028	49.73362059	1151.979815	2330.054013	87.96664826	1113.877428	2278.940355	1100.029521	1206.602049	2519.569943	43.35175636	1166.677031	2537.109772	58.25910684	1058.780945	2170.912095	1070.692867	1114.336407	2402.51833	180.2323978	1168.822523	2357.649118	187.0416494	1138.370903	2399.527589	259.1000123	1187.865632	2356.11335	265.485853	1155.582671	2388.407092	622.5824459	1209.256635	2332.851679	598.8972522	1166.590836	2331.966711	717.0166658	1224.652308	2279.937492	693.4726414	1184.621357
4	0.02	2334.321221	1025.160646	963.1628882	1727.77506	382.1725122	1013.517536	1748.06737	361.0283667	970.8608309	1775.393685	384.3744613	1013.758326	2281.136798	1099.883779	936.7708288	1798.958203	170.3111869	1037.438153	1778.622235	204.4181695	935.688444	2166.492462	1066.236176	1038.799464	1884.543263	361.7838761	952.8615819	1865.687699	397.8287572	984.6691017	1952.323255	404.02236	940.7123302	1936.884426	442.1042782	974.7401785	2198.141488	618.913028	928.9252325	2157.771873	625.1146144	990.3127711	2189.282433	728.1477155	916.2326984	2154.88009	734.2216378	975.5064549	2336.250743	1026.305257	1171.605761	2491.027553	90.15844672	1110.457274	2299.757196	37.94231782	1108.041841	2331.753737	48.38623463	1151.229476	2312.722967	85.14963281	1112.029898	2278.597712	1094.545614	1206.78632	2503.369888	43.88283738	1165.397651	2520.393661	57.00043707	1057.160653	2169.826784	1064.828693	1114.557215	2389.825272	177.478242	1166.228903	2344.568535	186.1367464	1136.754616	2390.293277	256.377959	1185.66774	2346.45842	264.557803	1154.268883	2388.577496	618.3457341	1208.222484	2333.198474	594.8278523	1165.270452	2331.944099	712.6312694	1224.166063	2279.793215	689.2379455	1184.065303
